<svg width="179" height="53" viewBox="0 0 179 53" fill="none" xmlns="http://www.w3.org/2000/svg">
<g id="Logo horizontal" clip-path="url(#clip0_872_3551)">
<path id="Vector" d="M26.338 53C12.0153 53.0539 -0.0146216 41.2985 1.3339e-05 26.4828C0.0146483 12.0595 11.5177 0 26.3819 0C41.3193 0 52.7687 12.1772 52.7444 26.5515C52.72 41.3034 40.7095 53.0932 26.338 53ZM44.9927 26.0807C45.022 23.2559 44.9195 20.6664 44.6854 18.0819C44.6122 17.2776 44.4951 16.4782 44.3195 15.6837C44.2073 15.1639 43.9341 14.8402 43.4463 14.644C42.7145 14.3449 41.9779 14.0604 41.2315 13.8152C38.9534 13.0649 36.641 12.4077 34.3238 11.7947C30.0358 10.6569 25.7331 9.56815 21.3622 8.79819C20.6694 8.67558 19.9718 8.53826 19.2596 8.55788C18.8645 8.56769 18.7766 8.62654 18.6547 9.00416C18.5376 9.36708 18.4547 9.73489 18.401 10.1125C18.24 11.2405 18.1473 12.3734 18.0742 13.5111C17.9864 14.7961 18.0059 16.0859 17.9278 17.3708C17.9034 17.7631 17.9278 17.7729 18.3181 17.871C19.0498 18.0574 19.7865 18.229 20.5182 18.4154C24.2452 19.3668 27.9674 20.3378 31.6066 21.5835C32.2115 21.7895 32.8116 22.0249 33.397 22.2848C33.8262 22.4761 34.0702 22.7801 34.1824 23.2264C34.3141 23.7561 34.4165 24.2906 34.4799 24.8301C34.758 27.0762 34.8702 29.3371 34.8848 31.6029C34.8897 32.4611 34.8848 33.3193 34.8897 34.1825C34.8897 34.6042 34.8946 34.614 35.3093 34.7121C36.3825 34.9622 37.4508 35.2173 38.5289 35.4429C40.0071 35.7518 41.4852 36.0804 42.9877 36.2324C44.1683 36.3501 44.178 36.3501 44.4219 35.232C44.7293 33.8392 44.8025 32.417 44.8756 30.9996C44.9586 29.2831 45.0513 27.5667 44.9927 26.0758V26.0807ZM7.75653 26.6152C7.71263 29.0625 7.73214 31.5048 7.95654 33.9422C8.04435 34.9132 8.1468 35.8793 8.3712 36.8308C8.49316 37.3408 8.75659 37.6694 9.2493 37.8705C9.99568 38.1745 10.7469 38.4688 11.5128 38.714C17.5961 40.6413 23.772 42.2107 30.0212 43.4858C31.0993 43.7065 32.1871 43.8781 33.2848 43.9762C33.7336 44.0155 33.9043 43.9076 34.0555 43.4662C34.0946 43.3583 34.1189 43.2455 34.1433 43.1327C34.3726 42.1322 34.4751 41.1121 34.5434 40.0921C34.6019 39.1848 34.6751 38.2824 34.7092 37.3751C34.7385 36.615 34.7287 35.8548 34.7434 35.0947C34.7434 34.8445 34.6556 34.6827 34.3921 34.6386C34.2946 34.6239 34.2019 34.5846 34.1043 34.565C31.4993 33.9373 28.904 33.2752 26.3283 32.5396C24.1623 31.9216 21.9915 31.3233 19.8987 30.4798C18.6449 29.9746 18.6547 30.0776 18.3571 28.5769C18.0303 26.9389 17.9473 25.2666 17.879 23.6041C17.8059 21.8729 17.7424 20.1368 17.7717 18.4007C17.7815 17.9004 17.7668 17.8808 17.279 17.7729C15.8204 17.4443 14.3618 17.1207 12.8983 16.8117C11.6787 16.5567 10.4445 16.3458 9.20051 16.2232C8.72244 16.1791 8.54194 16.2869 8.39559 16.7528C8.33217 16.9588 8.28339 17.1697 8.24436 17.3757C7.92727 19.0529 7.83459 20.7498 7.77117 22.4516C7.71751 23.8395 7.76141 25.2274 7.76141 26.6152H7.75653Z" fill="black"/>
<path id="Vector_2" d="M108.581 25.8699C108.581 27.5325 108.615 28.6752 108.571 29.813C108.503 31.554 108.206 33.2606 107.552 34.8888C106.327 37.9245 104.137 39.9059 101 40.769C98.127 41.5586 95.2391 41.5242 92.4096 40.5532C89.4924 39.5527 87.5216 37.5322 86.4386 34.6387C85.902 33.2067 85.6337 31.7158 85.5361 30.1906C85.3897 27.9444 85.4532 25.6983 85.4824 23.4522C85.5068 21.6327 85.78 19.8328 86.4337 18.1115C87.6874 14.806 90.0388 12.7413 93.439 11.8782C95.1756 11.4368 96.9416 11.3681 98.7222 11.5496C100.039 11.682 101.313 11.9763 102.522 12.5206C105.044 13.6584 106.718 15.5858 107.674 18.1703C108.123 19.3866 108.362 20.6469 108.498 21.9319C108.654 23.4178 108.542 24.9038 108.581 25.865V25.8699ZM92.3999 26.3162C92.3999 27.5717 92.3657 28.8272 92.4096 30.0827C92.4487 31.1763 92.6584 32.2454 93.1804 33.2312C93.6926 34.1973 94.4585 34.8349 95.5269 35.1242C96.2733 35.3253 97.0294 35.3302 97.7758 35.2615C99.2539 35.1242 100.381 34.4229 101.039 33.0399C101.469 32.1327 101.683 31.1616 101.717 30.1661C101.8 27.6404 101.805 25.1147 101.717 22.589C101.683 21.5297 101.459 20.49 100.952 19.5386C100.395 18.4842 99.5417 17.8221 98.3709 17.572C97.6197 17.4151 96.8635 17.4102 96.1172 17.5033C94.7171 17.6848 93.6731 18.4008 93.0731 19.72C92.6584 20.6371 92.4389 21.5984 92.4096 22.5939C92.3706 23.8298 92.3999 25.0706 92.3999 26.3113V26.3162Z" fill="black"/>
<path id="Vector_3" d="M136.281 11.7893C137.052 11.7893 137.828 11.7893 138.599 11.7893C139.472 11.7893 139.726 12.0002 139.911 12.8682C140.848 17.1938 141.779 21.5193 142.711 25.8448C143.355 28.8315 143.994 31.8182 144.633 34.8049C144.662 34.9324 144.687 35.0648 144.726 35.1923C144.789 35.413 144.887 35.5895 145.16 35.5846C145.414 35.5846 145.531 35.4865 145.623 35.1678C145.658 35.055 145.682 34.9422 145.706 34.8294C146.926 29.165 148.146 23.4957 149.365 17.8313C149.721 16.1688 150.082 14.5063 150.438 12.8437C150.468 12.7162 150.497 12.5838 150.536 12.4612C150.673 12.0345 150.965 11.804 151.409 11.7942C151.673 11.7844 151.936 11.7893 152.199 11.7893C153.565 11.7893 154.926 11.7893 156.292 11.7893C156.507 11.7893 156.717 11.7893 156.927 11.8482C157.331 11.9708 157.502 12.2062 157.424 12.6279C157.336 13.1135 157.214 13.5941 157.102 14.0796C155.551 20.5679 154 27.0562 152.443 33.5445C152.18 34.6381 151.931 35.7318 151.663 36.8205C151.492 37.512 151.268 38.1839 150.892 38.7969C150.151 40.0082 149.063 40.7243 147.707 41.0283C145.897 41.4305 144.082 41.4403 142.292 40.9351C140.482 40.4251 139.316 39.2187 138.808 37.4139C138.418 36.0162 138.106 34.594 137.764 33.1816C136.555 28.14 135.35 23.0985 134.145 18.052C133.755 16.414 133.359 14.776 132.969 13.138C132.95 13.0595 132.925 12.9761 132.911 12.8977C132.759 12.1767 133.018 11.8236 133.755 11.804C134.594 11.7795 135.433 11.7991 136.272 11.7991L136.281 11.7893Z" fill="black"/>
<path id="Vector_4" d="M178.152 15.0463C178.152 15.674 178.157 16.3018 178.152 16.9295C178.142 17.5426 177.864 17.7927 177.25 17.7485C175.576 17.6308 173.908 17.4788 172.235 17.4052C170.908 17.3464 169.571 17.2924 168.239 17.3709C167.888 17.3905 167.556 17.469 167.234 17.5965C166.586 17.8515 166.264 18.3419 166.195 19.0334C166.112 19.8721 166.405 20.5047 167.083 20.9951C167.864 21.5542 168.717 21.9809 169.552 22.4419C171.122 23.305 172.703 24.1535 174.274 25.0215C175.025 25.4384 175.713 25.9435 176.357 26.5222C177.757 27.7826 178.616 29.3323 178.889 31.2106C179.216 33.4617 178.816 35.5558 177.537 37.4439C176.581 38.8612 175.23 39.7734 173.664 40.3914C172.303 40.9259 170.879 41.1908 169.43 41.2545C166.673 41.3771 163.946 41.1417 161.263 40.4943C161.166 40.4698 161.073 40.4502 160.98 40.4159C160.312 40.1952 160.141 39.9647 160.141 39.2634C160.141 38.1746 160.141 37.081 160.141 35.9923C160.141 35.8451 160.141 35.6931 160.166 35.546C160.234 35.188 160.444 34.9918 160.81 34.9771C161.122 34.9624 161.434 34.9771 161.746 35.0016C163.888 35.188 166.034 35.3743 168.186 35.389C168.776 35.389 169.366 35.4038 169.952 35.2713C171.035 35.031 171.532 34.5161 171.727 33.4274C171.903 32.4367 171.679 31.5981 170.879 30.9458C170.444 30.5878 169.981 30.2739 169.503 29.9846C167.639 28.8664 165.776 27.7532 163.912 26.635C162.761 25.9435 161.698 25.1539 160.858 24.0799C159.961 22.9274 159.488 21.618 159.332 20.1663C159.224 19.1511 159.278 18.1507 159.478 17.16C159.922 14.9776 161.205 13.4524 163.205 12.5353C164.459 11.9566 165.79 11.6967 167.156 11.5496C168.308 11.4221 169.454 11.4368 170.605 11.476C172.196 11.53 173.781 11.682 175.362 11.9174C176.011 12.0155 176.664 12.1038 177.303 12.2558C178.02 12.4274 178.157 12.604 178.162 13.3494C178.162 13.9134 178.162 14.4725 178.162 15.0365L178.152 15.0463Z" fill="black"/>
<path id="Vector_5" d="M123.87 28.9599C123.87 32.5155 123.851 36.0662 123.88 39.6217C123.89 40.8037 123.358 40.9753 122.524 40.9655C121.178 40.9459 119.826 40.9655 118.48 40.9606C117.304 40.9606 117.055 40.7105 117.055 39.5335C117.055 32.4763 117.055 25.4191 117.055 18.3619C117.055 17.4154 117.094 17.4595 116.177 17.4595C114.582 17.4595 112.987 17.4595 111.392 17.4595C111.294 17.4595 111.196 17.4595 111.094 17.4595C110.26 17.4399 110.001 17.1849 110.001 16.361C110.001 15.1693 110.021 13.9824 109.996 12.7907C109.982 12.0306 110.445 11.8197 110.953 11.7951C111.084 11.7902 111.216 11.7951 111.348 11.7951C117.416 11.7951 123.48 11.7951 129.549 11.7951C129.763 11.7951 129.978 11.7951 130.188 11.8295C130.705 11.9227 130.959 12.2169 130.973 12.7515C130.988 13.3645 130.978 13.9726 130.978 14.5857C130.978 15.1987 130.983 15.8068 130.978 16.4198C130.968 17.077 130.676 17.3909 130.027 17.4497C129.832 17.4693 129.632 17.4595 129.437 17.4595C127.827 17.4595 126.212 17.4595 124.602 17.4595C124.456 17.4595 124.305 17.4595 124.158 17.4693C123.983 17.4791 123.89 17.5821 123.885 17.7538C123.88 17.9205 123.875 18.0824 123.875 18.2491C123.875 21.8194 123.875 25.3897 123.875 28.9599H123.87Z" fill="black"/>
<path id="Vector_6" d="M70.2429 28.9541C70.2429 25.3495 70.2429 21.7498 70.2429 18.1452C70.2429 17.4586 70.2429 17.4586 69.5648 17.4586C67.8867 17.4586 66.2134 17.4586 64.5353 17.4586C64.3206 17.4586 64.106 17.4586 63.8962 17.4193C63.3742 17.3311 63.1596 17.081 63.145 16.5464C63.1352 16.2178 63.145 15.8843 63.145 15.5557C63.145 14.6288 63.1401 13.7068 63.145 12.7799C63.1498 12.1424 63.4328 11.8481 64.067 11.7991C64.2133 11.7893 64.3645 11.7942 64.5109 11.7942C70.56 11.7942 76.6091 11.7942 82.6582 11.7942C82.9216 11.7942 83.1851 11.7795 83.4436 11.853C83.868 11.9806 84.1022 12.2307 84.1071 12.6671C84.1217 13.9717 84.1217 15.2762 84.1071 16.5856C84.1071 17.0221 83.868 17.282 83.4485 17.4046C83.2241 17.4684 82.9948 17.4635 82.7655 17.4635C81.1069 17.4635 79.4434 17.4635 77.7848 17.4635C77.6531 17.4635 77.5214 17.4586 77.3896 17.4635C77.0774 17.488 77.0335 17.5321 77.014 17.8607C77.0042 18.0275 77.014 18.1893 77.014 18.3561C77.014 25.3446 77.014 32.338 77.014 39.3265C77.014 39.4442 77.0091 39.557 77.014 39.6747C77.0823 40.7537 76.5262 40.9694 75.7652 40.9645C74.3358 40.9498 72.9065 40.9645 71.4722 40.9645C71.3552 40.9645 71.243 40.9645 71.1259 40.9498C70.521 40.8763 70.2478 40.582 70.2429 39.969C70.2332 38.8459 70.2429 37.7229 70.2429 36.5998C70.2429 34.0545 70.2429 31.5092 70.2429 28.9639V28.9541Z" fill="black"/>
</g>
<defs>
<clipPath id="clip0_872_3551">
<rect width="179" height="53" fill="black"/>
</clipPath>
</defs>
</svg>
