<svg width="32" height="32" viewBox="0 0 32 32" fill="none" xmlns="http://www.w3.org/2000/svg">
  <path d="M15.9752 31.9997C7.28781 32.0322 -0.00886865 24.9347 8.0907e-06 15.9895C0.00888483 7.28113 6.986 0 16.0018 0C25.062 0 32.0066 7.3522 31.9918 16.0309C31.977 24.9377 24.6921 32.0559 15.9752 31.9997ZM27.2901 15.7467C27.3078 14.0411 27.2457 12.4777 27.1037 10.9173C27.0593 10.4316 26.9883 9.949 26.8817 9.46932C26.8137 9.15545 26.648 8.96003 26.3521 8.84159C25.9083 8.66096 25.4615 8.48922 25.0087 8.34117C23.6269 7.88814 22.2244 7.49136 20.8189 7.12124C18.218 6.43428 15.6083 5.77694 12.9571 5.31206C12.5369 5.23803 12.1138 5.15512 11.6818 5.16697C11.4421 5.17289 11.3889 5.20842 11.3149 5.43642C11.2439 5.65554 11.1936 5.87761 11.161 6.10561C11.0634 6.78664 11.0072 7.47064 10.9628 8.15759C10.9095 8.93338 10.9214 9.71212 10.874 10.4879C10.8592 10.7248 10.874 10.7307 11.1107 10.7899C11.5546 10.9024 12.0014 11.0061 12.4452 11.1186C14.7058 11.693 16.9635 12.2793 19.1708 13.0314C19.5377 13.1558 19.9017 13.2979 20.2567 13.4548C20.5171 13.5703 20.6651 13.7539 20.7331 14.0234C20.813 14.3431 20.8751 14.6659 20.9136 14.9916C21.0823 16.3478 21.1503 17.7128 21.1592 19.0808C21.1622 19.5989 21.1592 20.1171 21.1622 20.6383C21.1622 20.8929 21.1651 20.8988 21.4166 20.958C22.0676 21.1091 22.7156 21.263 23.3695 21.3992C24.2661 21.5858 25.1626 21.7842 26.074 21.876C26.79 21.947 26.7959 21.947 26.9439 21.2719C27.1303 20.431 27.1747 19.5723 27.2191 18.7166C27.2694 17.6802 27.3256 16.6439 27.2901 15.7437V15.7467ZM4.70468 16.0694C4.67805 17.547 4.68989 19.0215 4.826 20.4932C4.87926 21.0795 4.94139 21.6628 5.0775 22.2372C5.15148 22.5452 5.31126 22.7435 5.61011 22.8649C6.06282 23.0485 6.5185 23.2262 6.98304 23.3742C10.6728 24.5379 14.4188 25.4854 18.2092 26.2553C18.8631 26.3885 19.5229 26.4922 20.1887 26.5514C20.4609 26.5751 20.5645 26.5099 20.6562 26.2435C20.6799 26.1783 20.6947 26.1102 20.7094 26.0421C20.8485 25.4381 20.9107 24.8222 20.9521 24.2063C20.9876 23.6585 21.032 23.1137 21.0527 22.5659C21.0704 22.1069 21.0645 21.648 21.0734 21.189C21.0734 21.038 21.0201 20.9403 20.8604 20.9136C20.8012 20.9048 20.745 20.8811 20.6858 20.8692C19.1057 20.4902 17.5316 20.0905 15.9693 19.6463C14.6555 19.2732 13.3388 18.912 12.0694 18.4027C11.309 18.0977 11.3149 18.1599 11.1344 17.2538C10.9362 16.2648 10.8859 15.2551 10.8444 14.2514C10.8 13.2061 10.7616 12.1579 10.7793 11.1097C10.7852 10.8077 10.7764 10.7959 10.4805 10.7307C9.59576 10.5323 8.71105 10.3369 7.82338 10.1504C7.08365 9.99638 6.33504 9.86906 5.58052 9.79503C5.29055 9.76838 5.18107 9.83352 5.0923 10.1148C5.05383 10.2392 5.02424 10.3665 5.00057 10.4909C4.80824 11.5035 4.75202 12.528 4.71356 13.5555C4.68101 14.3935 4.70764 15.2315 4.70764 16.0694H4.70468Z" fill="#000000"/>
</svg>
